<svg xmlns="http://www.w3.org/2000/svg" viewBox="0 0 800 450" role="img" aria-labelledby="t d"><title id="t">Klassik portfolio dizayni</title><desc id="d">Qora-yashil klassik portfolio oynasi</desc><defs><linearGradient id="bg" x1="0" y1="0" x2="1" y2="1"><stop stop-color="#06110c"/><stop offset="1" stop-color="#0b2117"/></linearGradient><linearGradient id="card" x1="0" y1="0" x2="1" y2="1"><stop stop-color="#0d2118"/><stop offset="1" stop-color="#0a1812"/></linearGradient><filter id="glow"><feGaussianBlur stdDeviation="8" result="b"/><feMerge><feMergeNode in="b"/><feMergeNode in="SourceGraphic"/></feMerge></filter></defs><rect width="800" height="450" rx="26" fill="url(#bg)"/><circle cx="690" cy="70" r="130" fill="#2cff89" opacity=".05"/><rect x="22" y="20" width="756" height="410" rx="18" fill="#06100c" stroke="#234334"/><rect x="22" y="20" width="756" height="44" rx="18" fill="#0b1711"/><circle cx="46" cy="42" r="6" fill="#ff5f56"/><circle cx="67" cy="42" r="6" fill="#ffbd2e"/><circle cx="88" cy="42" r="6" fill="#27c93f"/><rect x="120" y="34" width="130" height="15" rx="7" fill="#1b3528"/><rect x="52" y="95" width="280" height="18" rx="9" fill="#2cff89" opacity=".9" filter="url(#glow)"/><rect x="52" y="128" width="360" height="38" rx="10" fill="#f3fff8" opacity=".92"/><rect x="52" y="180" width="330" height="10" rx="5" fill="#86a895"/><rect x="52" y="201" width="270" height="10" rx="5" fill="#557463"/><rect x="52" y="238" width="132" height="42" rx="10" fill="#2cff89"/><rect x="198" y="238" width="132" height="42" rx="10" fill="#10271c" stroke="#2cff89" opacity=".95"/><rect x="455" y="96" width="275" height="184" rx="20" fill="url(#card)" stroke="#244c37"/><rect x="480" y="121" width="112" height="12" rx="6" fill="#2cff89"/><rect x="480" y="146" width="198" height="9" rx="5" fill="#385a49"/><rect x="480" y="183" width="220" height="72" rx="12" fill="#08140e"/><path d="M497 234l38-35 36 17 45-51 66 64" fill="none" stroke="#2cff89" stroke-width="7" stroke-linecap="round" stroke-linejoin="round"/><g transform="translate(52 322)"><rect width="206" height="74" rx="14" fill="#0c2017" stroke="#1f4933"/><rect x="18" y="17" width="54" height="8" rx="4" fill="#2cff89"/><rect x="18" y="35" width="150" height="7" rx="4" fill="#416352"/><rect x="18" y="51" width="112" height="7" rx="4" fill="#294838"/></g><g transform="translate(276 322)"><rect width="206" height="74" rx="14" fill="#0c2017" stroke="#1f4933"/><rect x="18" y="17" width="72" height="8" rx="4" fill="#2cff89"/><rect x="18" y="35" width="150" height="7" rx="4" fill="#416352"/><rect x="18" y="51" width="126" height="7" rx="4" fill="#294838"/></g><g transform="translate(500 322)"><rect width="230" height="74" rx="14" fill="#0c2017" stroke="#1f4933"/><circle cx="38" cy="37" r="18" fill="#2cff89" opacity=".18"/><rect x="70" y="20" width="112" height="8" rx="4" fill="#2cff89"/><rect x="70" y="39" width="136" height="7" rx="4" fill="#416352"/></g></svg>