<svg xmlns="http://www.w3.org/2000/svg" viewBox="0 0 800 450" role="img" aria-labelledby="t d"><title id="t">Dashboard dizayni</title><desc id="d">Chap menyuli professional boshqaruv paneli</desc><defs><linearGradient id="bg" x1="0" y1="0" x2="1" y2="1"><stop stop-color="#07100d"/><stop offset="1" stop-color="#0a1c14"/></linearGradient><linearGradient id="panel" x1="0" y1="0" x2="1" y2="1"><stop stop-color="#10271c"/><stop offset="1" stop-color="#0b1a13"/></linearGradient></defs><rect width="800" height="450" rx="26" fill="url(#bg)"/><rect x="20" y="20" width="760" height="410" rx="20" fill="#08140f" stroke="#224332"/><rect x="20" y="20" width="190" height="410" rx="20" fill="#07100c"/><rect x="43" y="46" width="42" height="42" rx="12" fill="#2cff89" opacity=".16"/><path d="M56 66h17M64.5 57.5v17" stroke="#2cff89" stroke-width="4" stroke-linecap="round"/><rect x="98" y="50" width="80" height="10" rx="5" fill="#e9fff3"/><rect x="98" y="68" width="60" height="7" rx="4" fill="#557363"/><g fill="#11261b"><rect x="39" y="112" width="152" height="42" rx="10" fill="#133221" stroke="#2cff89"/><rect x="39" y="164" width="152" height="42" rx="10"/><rect x="39" y="216" width="152" height="42" rx="10"/><rect x="39" y="268" width="152" height="42" rx="10"/></g><g fill="#2cff89"><rect x="54" y="127" width="18" height="12" rx="3"/><circle cx="63" cy="185" r="8"/><rect x="55" y="233" width="16" height="16" rx="4"/><path d="M55 286h16v8H55z"/></g><g fill="#88a596"><rect x="83" y="127" width="76" height="8" rx="4"/><rect x="83" y="181" width="68" height="8" rx="4"/><rect x="83" y="233" width="82" height="8" rx="4"/><rect x="83" y="285" width="62" height="8" rx="4"/></g><circle cx="65" cy="382" r="20" fill="#133221"/><rect x="96" y="371" width="72" height="8" rx="4" fill="#d9f4e4"/><rect x="96" y="387" width="48" height="6" rx="3" fill="#597467"/><rect x="238" y="43" width="216" height="18" rx="9" fill="#f0fff6"/><rect x="238" y="76" width="330" height="8" rx="4" fill="#52705f"/><g transform="translate(238 112)"><rect width="150" height="95" rx="16" fill="url(#panel)" stroke="#20432f"/><rect x="17" y="18" width="74" height="8" rx="4" fill="#6e8979"/><rect x="17" y="42" width="88" height="24" rx="7" fill="#f2fff7"/><circle cx="122" cy="48" r="16" fill="#2cff89" opacity=".18"/></g><g transform="translate(406 112)"><rect width="150" height="95" rx="16" fill="url(#panel)" stroke="#20432f"/><rect x="17" y="18" width="70" height="8" rx="4" fill="#6e8979"/><rect x="17" y="42" width="66" height="24" rx="7" fill="#f2fff7"/><circle cx="122" cy="48" r="16" fill="#2cff89" opacity=".18"/></g><g transform="translate(574 112)"><rect width="174" height="95" rx="16" fill="url(#panel)" stroke="#20432f"/><rect x="17" y="18" width="82" height="8" rx="4" fill="#6e8979"/><rect x="17" y="42" width="80" height="24" rx="7" fill="#f2fff7"/><circle cx="143" cy="48" r="16" fill="#2cff89" opacity=".18"/></g><rect x="238" y="226" width="330" height="170" rx="18" fill="url(#panel)" stroke="#20432f"/><rect x="258" y="248" width="112" height="10" rx="5" fill="#e7fff0"/><path d="M263 354c42-44 74-20 110-62s65 22 105-12 50-20 72-4" fill="none" stroke="#2cff89" stroke-width="7" stroke-linecap="round"/><g stroke="#355847" opacity=".6"><path d="M263 282h280M263 316h280M263 350h280"/></g><rect x="586" y="226" width="162" height="170" rx="18" fill="url(#panel)" stroke="#20432f"/><circle cx="667" cy="298" r="45" fill="none" stroke="#183324" stroke-width="15"/><path d="M667 253a45 45 0 0 1 39 67" fill="none" stroke="#2cff89" stroke-width="15" stroke-linecap="round"/><rect x="621" y="365" width="92" height="8" rx="4" fill="#6a8878"/></svg>