<svg xmlns="http://www.w3.org/2000/svg" viewBox="0 0 800 450" role="img" aria-labelledby="t d"><title id="t">Glass dizayni</title><desc id="d">Ko‘k-binafsha shaffof glassmorphism dizayn</desc><defs><linearGradient id="bg" x1="0" y1="0" x2="1" y2="1"><stop stop-color="#16113f"/><stop offset=".5" stop-color="#0a2850"/><stop offset="1" stop-color="#07172e"/></linearGradient><linearGradient id="glass" x1="0" y1="0" x2="1" y2="1"><stop stop-color="#ffffff" stop-opacity=".16"/><stop offset="1" stop-color="#ffffff" stop-opacity=".05"/></linearGradient><radialGradient id="orb1"><stop stop-color="#8b5cf6"/><stop offset="1" stop-color="#8b5cf6" stop-opacity="0"/></radialGradient><radialGradient id="orb2"><stop stop-color="#22d3ee"/><stop offset="1" stop-color="#22d3ee" stop-opacity="0"/></radialGradient><filter id="shadow"><feDropShadow dx="0" dy="18" stdDeviation="18" flood-opacity=".35"/></filter></defs><rect width="800" height="450" rx="26" fill="url(#bg)"/><circle cx="128" cy="92" r="180" fill="url(#orb1)" opacity=".75"/><circle cx="690" cy="350" r="210" fill="url(#orb2)" opacity=".55"/><path d="M0 328C154 243 290 395 450 290s246-36 350-88v248H0z" fill="#1b4f77" opacity=".25"/><rect x="28" y="24" width="744" height="402" rx="24" fill="url(#glass)" stroke="#cbd5ff" stroke-opacity=".22" filter="url(#shadow)"/><rect x="51" y="48" width="698" height="48" rx="16" fill="#ffffff" fill-opacity=".08" stroke="#fff" stroke-opacity=".1"/><circle cx="75" cy="72" r="8" fill="#8b5cf6"/><rect x="96" y="65" width="90" height="14" rx="7" fill="#eef2ff" fill-opacity=".88"/><g fill="#dce8ff" fill-opacity=".6"><rect x="443" y="68" width="58" height="8" rx="4"/><rect x="518" y="68" width="58" height="8" rx="4"/><rect x="593" y="68" width="58" height="8" rx="4"/></g><rect x="667" y="57" width="61" height="30" rx="11" fill="#22d3ee" fill-opacity=".22" stroke="#62e8fb" stroke-opacity=".55"/><rect x="54" y="127" width="430" height="255" rx="26" fill="#ffffff" fill-opacity=".1" stroke="#d9e1ff" stroke-opacity=".2"/><rect x="82" y="157" width="98" height="10" rx="5" fill="#65e9ff"/><rect x="82" y="185" width="294" height="32" rx="11" fill="#f4f7ff" fill-opacity=".9"/><rect x="82" y="232" width="338" height="9" rx="4" fill="#cfdaff" fill-opacity=".52"/><rect x="82" y="252" width="270" height="9" rx="4" fill="#cfdaff" fill-opacity=".34"/><rect x="82" y="290" width="135" height="43" rx="14" fill="#7c5cff"/><rect x="230" y="290" width="135" height="43" rx="14" fill="#ffffff" fill-opacity=".1" stroke="#d7dfff" stroke-opacity=".3"/><g transform="translate(515 127)"><rect width="233" height="116" rx="24" fill="#fff" fill-opacity=".11" stroke="#d9e1ff" stroke-opacity=".2"/><circle cx="52" cy="54" r="25" fill="#22d3ee" fill-opacity=".22"/><path d="M42 55l8 8 16-19" fill="none" stroke="#61efff" stroke-width="6" stroke-linecap="round" stroke-linejoin="round"/><rect x="92" y="35" width="98" height="10" rx="5" fill="#edf2ff" fill-opacity=".88"/><rect x="92" y="57" width="116" height="8" rx="4" fill="#cedaff" fill-opacity=".42"/></g><g transform="translate(515 262)"><rect width="233" height="120" rx="24" fill="#fff" fill-opacity=".11" stroke="#d9e1ff" stroke-opacity=".2"/><rect x="24" y="24" width="88" height="10" rx="5" fill="#edf2ff" fill-opacity=".88"/><g transform="translate(24 56)"><rect width="15" height="36" rx="5" fill="#7758ff"/><rect x="29" y="-12" width="15" height="48" rx="5" fill="#22d3ee"/><rect x="58" y="10" width="15" height="26" rx="5" fill="#a78bfa"/><rect x="87" y="-22" width="15" height="58" rx="5" fill="#67e8f9"/><rect x="116" y="2" width="15" height="34" rx="5" fill="#8b5cf6"/><rect x="145" y="-8" width="15" height="44" rx="5" fill="#22d3ee"/></g></g></svg>