<svg xmlns="http://www.w3.org/2000/svg" viewBox="0 0 800 450" role="img" aria-labelledby="t d"><title id="t">Yorug‘ dizayn</title><desc id="d">Oq fonli toza professional portfolio dizayni</desc><defs><linearGradient id="bg" x1="0" y1="0" x2="1" y2="1"><stop stop-color="#ffffff"/><stop offset="1" stop-color="#eaf5ef"/></linearGradient><filter id="shadow"><feDropShadow dx="0" dy="12" stdDeviation="14" flood-color="#315d46" flood-opacity=".13"/></filter></defs><rect width="800" height="450" rx="26" fill="url(#bg)"/><circle cx="735" cy="35" r="150" fill="#34d399" opacity=".07"/><rect x="24" y="20" width="752" height="410" rx="24" fill="#fff" stroke="#d6e5dc" filter="url(#shadow)"/><rect x="24" y="20" width="752" height="58" rx="24" fill="#fbfdfc"/><rect x="49" y="39" width="32" height="20" rx="6" fill="#22c77a"/><rect x="92" y="43" width="94" height="12" rx="6" fill="#1e3529"/><g fill="#71857a"><rect x="430" y="45" width="58" height="9" rx="4"/><rect x="507" y="45" width="58" height="9" rx="4"/><rect x="584" y="45" width="58" height="9" rx="4"/></g><rect x="664" y="34" width="86" height="30" rx="12" fill="#22c77a"/><rect x="54" y="116" width="286" height="12" rx="6" fill="#22c77a"/><rect x="54" y="147" width="376" height="36" rx="10" fill="#17271f"/><rect x="54" y="202" width="360" height="10" rx="5" fill="#789083"/><rect x="54" y="224" width="294" height="10" rx="5" fill="#a4b5ac"/><rect x="54" y="265" width="138" height="43" rx="12" fill="#22c77a"/><rect x="205" y="265" width="138" height="43" rx="12" fill="#fff" stroke="#22c77a"/><rect x="480" y="107" width="248" height="206" rx="22" fill="#f2f8f5" stroke="#d6e8dd"/><circle cx="604" cy="183" r="55" fill="#d8eee2"/><circle cx="604" cy="168" r="22" fill="#91b8a2"/><path d="M556 243c9-35 35-50 48-50s39 15 48 50" fill="#91b8a2"/><rect x="519" y="270" width="170" height="10" rx="5" fill="#b8cec1"/><g transform="translate(54 346)"><rect width="210" height="60" rx="15" fill="#fff" stroke="#d9e8df" filter="url(#shadow)"/><circle cx="31" cy="30" r="15" fill="#d9f2e4"/><rect x="58" y="17" width="96" height="9" rx="4" fill="#2b4336"/><rect x="58" y="36" width="125" height="7" rx="3" fill="#9db0a5"/></g><g transform="translate(282 346)"><rect width="210" height="60" rx="15" fill="#fff" stroke="#d9e8df" filter="url(#shadow)"/><circle cx="31" cy="30" r="15" fill="#d9f2e4"/><rect x="58" y="17" width="112" height="9" rx="4" fill="#2b4336"/><rect x="58" y="36" width="130" height="7" rx="3" fill="#9db0a5"/></g><g transform="translate(510 346)"><rect width="218" height="60" rx="15" fill="#fff" stroke="#d9e8df" filter="url(#shadow)"/><circle cx="31" cy="30" r="15" fill="#d9f2e4"/><rect x="58" y="17" width="105" height="9" rx="4" fill="#2b4336"/><rect x="58" y="36" width="136" height="7" rx="3" fill="#9db0a5"/></g></svg>