<svg xmlns="http://www.w3.org/2000/svg" viewBox="0 0 800 450" role="img" aria-labelledby="t d"><title id="t">Terminal dizayni</title><desc id="d">Klassik qora terminal va yashil kod ko‘rinishi</desc><defs><linearGradient id="screen" x1="0" y1="0" x2="1" y2="1"><stop stop-color="#010301"/><stop offset="1" stop-color="#061006"/></linearGradient><pattern id="grid" width="24" height="24" patternUnits="userSpaceOnUse"><path d="M24 0H0V24" fill="none" stroke="#7CFF00" stroke-opacity=".035"/></pattern><filter id="glow"><feGaussianBlur stdDeviation="4" result="b"/><feMerge><feMergeNode in="b"/><feMergeNode in="SourceGraphic"/></feMerge></filter></defs><rect width="800" height="450" rx="26" fill="#020402"/><rect width="800" height="450" rx="26" fill="url(#grid)"/><rect x="22" y="20" width="756" height="410" rx="5" fill="url(#screen)" stroke="#386b2c"/><rect x="22" y="20" width="756" height="40" fill="#050805" stroke="#1c3518"/><circle cx="44" cy="40" r="5" fill="#ff5f56"/><circle cx="62" cy="40" r="5" fill="#ffbd2e"/><circle cx="80" cy="40" r="5" fill="#27c93f"/><rect x="104" y="34" width="120" height="11" rx="2" fill="#173514"/><text x="49" y="94" font-family="monospace" font-size="18" fill="#7CFF00" filter="url(#glow)">$ portfolio --theme terminal</text><text x="49" y="127" font-family="monospace" font-size="15" fill="#9cb998">Initializing interface...</text><text x="49" y="156" font-family="monospace" font-size="15" fill="#7CFF00">[OK]</text><text x="96" y="156" font-family="monospace" font-size="15" fill="#d9ffd0">Navigation loaded</text><text x="49" y="184" font-family="monospace" font-size="15" fill="#7CFF00">[OK]</text><text x="96" y="184" font-family="monospace" font-size="15" fill="#d9ffd0">Projects mounted</text><rect x="48" y="215" width="704" height="1" fill="#21471c"/><rect x="49" y="239" width="314" height="146" fill="#030703" stroke="#2d5d26"/><text x="67" y="269" font-family="monospace" font-size="15" fill="#7CFF00">~/profile</text><rect x="67" y="287" width="178" height="9" rx="2" fill="#dfffd8" opacity=".85"/><rect x="67" y="309" width="245" height="7" rx="2" fill="#6d8767"/><rect x="67" y="327" width="214" height="7" rx="2" fill="#526d4d"/><rect x="67" y="353" width="100" height="18" rx="2" fill="#7CFF00"/><rect x="385" y="239" width="367" height="146" fill="#030703" stroke="#2d5d26"/><text x="403" y="269" font-family="monospace" font-size="15" fill="#7CFF00">system_status</text><g font-family="monospace" font-size="13"><text x="403" y="302" fill="#809879">UI</text><text x="470" y="302" fill="#7CFF00">ONLINE</text><text x="403" y="329" fill="#809879">API</text><text x="470" y="329" fill="#7CFF00">READY</text><text x="403" y="356" fill="#809879">SEC</text><text x="470" y="356" fill="#7CFF00">ENABLED</text></g><g transform="translate(590 286)"><rect width="130" height="62" rx="2" fill="#071007" stroke="#244c20"/><path d="M10 46l22-18 18 8 20-25 18 17 16-10 16 12" fill="none" stroke="#7CFF00" stroke-width="3"/></g><text x="49" y="414" font-family="monospace" font-size="15" fill="#7CFF00">abbos@portfolio:~$</text><rect x="231" y="399" width="10" height="18" fill="#7CFF00"><animate attributeName="opacity" values="1;0;1" dur="1s" repeatCount="indefinite"/></rect></svg>