<svg xmlns="http://www.w3.org/2000/svg" viewBox="0 0 1200 720"><defs><linearGradient id="g" x1="0" y1="0" x2="1" y2="1"><stop stop-color="#39ff88"/><stop offset="1" stop-color="#6fc8ff"/></linearGradient></defs><rect width="1200" height="720" rx="44" fill="#09100c"/><g opacity=".16" stroke="#39ff88"><path d="M0 100h1200M0 220h1200M0 340h1200M0 460h1200M0 580h1200"/><path d="M120 0v720M300 0v720M480 0v720M660 0v720M840 0v720M1020 0v720"/></g><rect x="70" y="70" width="1060" height="580" rx="30" fill="#0d1612" stroke="#39ff88" stroke-opacity=".35"/><circle cx="115" cy="110" r="10" fill="#ff5f57"/><circle cx="150" cy="110" r="10" fill="#febc2e"/><circle cx="185" cy="110" r="10" fill="#28c840"/><rect x="110" y="165" width="270" height="420" rx="22" fill="#09100c"/><rect x="420" y="165" width="650" height="145" rx="22" fill="url(#g)" opacity=".86"/><rect x="420" y="345" width="300" height="240" rx="22" fill="#09100c"/><rect x="755" y="345" width="315" height="240" rx="22" fill="#09100c"/><g fill="#39ff88" opacity=".8"><rect x="470" y="485" width="38" height="55" rx="8"/><rect x="530" y="430" width="38" height="110" rx="8"/><rect x="590" y="385" width="38" height="155" rx="8"/><rect x="650" y="455" width="38" height="85" rx="8"/></g><path d="M810 500c45-80 95-35 145-100 35-45 65 5 92-30" fill="none" stroke="#6fc8ff" stroke-width="13" stroke-linecap="round"/><text x="465" y="235" fill="#07100b" font-family="monospace" font-size="58" font-weight="700">EduCRM</text><text x="468" y="278" fill="#07100b" font-family="monospace" font-size="25">Education CRM</text></svg>